# xmcd
#
# Track frame offsets: 
#        150
#        29620
#        46084
#        74494
#        100947
#        117572
#        142025
#        161735
#        175369
#        197272
#        210568
#        235665
#        249307
#        279687
#
# Disc length: 3998 seconds
#
# Revision: 0
# Processed by: cddbd v1.5.2PL0 Copyright (c) Steve Scherf et al.
# Submitted via: ExactAudioCopy v0.99pb4
#
DISCID=cc0f9c0e
DTITLE=Various Artist - SAS #2 - Relativ Analogi (sida B)
DYEAR=1998
DGENRE=
TTITLE0=Lasse Viklund - Ill Allegro från Brandenburg concerto 3 (J.S. 
TTITLE0=Bach)
TTITLE1=Ricard Wolf - B
TTITLE2=Kristofer Ulfves and Torbjörn Schedin - Shaltwerk
TTITLE3=PCB (Personal Computer Basementboys) - Everything
TTITLE4=Sixty Degrees - Pretentious
TTITLE5=Bengt Falke - ThreeO - Out Of Order
TTITLE6=Kim Hansen - Styrespænding
TTITLE7=Texas BBQ Bitches - Ballistic Beefcake
TTITLE8=Run-Level Zero - Cosmic Penetration
TTITLE9=Morten Schwarz - Generic
TTITLE10=Tomas Högström - Mir
TTITLE11=T Högström, LV426 - Liquid God
TTITLE12=Kristofer Ulfves - Sacral
TTITLE13=MonoMan - Min Rymdraket
EXTD=
EXTT0=
EXTT1=
EXTT2=
EXTT3=
EXTT4=
EXTT5=
EXTT6=
EXTT7=
EXTT8=
EXTT9=
EXTT10=
EXTT11=
EXTT12=
EXTT13=
PLAYORDER=
